<svg xmlns="http://www.w3.org/2000/svg" fill="none" viewBox="0 0 1080 1080"><defs><filter id="filter" width="140%" height="140%" x="-20%" y="-20%" color-interpolation-filters="linearRGB" filterUnits="objectBoundingBox" primitiveUnits="userSpaceOnUse"><feMorphology in="SourceAlpha" operator="dilate" radius="20 20" result="morphology"/><feFlood flood-color="#fff" flood-opacity="1" result="flood"/><feComposite in="flood" in2="morphology" operator="in" result="composite"/><feMerge result="merge"><feMergeNode in="composite" result="mergeNode"/><feMergeNode in="SourceGraphic" result="mergeNode1"/></feMerge></filter></defs><g id="notion-avatar" filter="url(#filter)"><g id="notion-avatar-face" fill="#fff"><title>Face/ 15</title><desc>Created with Sketch.</desc><g id="Face/-15" fill-rule="evenodd" stroke="none" stroke-linecap="round" stroke-linejoin="round" stroke-width="1"><path id="Path" stroke="#000" stroke-width="24" d="M532,379 C664.54834,379 772,486.45166 772,619 C772,642.160109 793.234546,666.244677 787.453024,688.979248 C773.583554,743.517917 768.701879,951.343666 608,919 C549.618945,907.249936 481,900 453,878 C425,856 342.170039,758.772836 320.189513,718.584987 C317.498129,718.859681 314.765451,719 312,719 C267.81722,719 232,683.18278 232,639 C232,599.134956 261.158843,566.080325 299.312086,560.00055 C325.599297,455.979213 419.809919,379 532,379 Z M295.858895,624.545187 L304.141105,655.454813"/></g></g><g id="notion-avatar-nose"><title>Nose/ 0</title><g id="Nose/-0" fill="none" fill-rule="evenodd" stroke="none" stroke-linecap="round" stroke-linejoin="round" stroke-width="1"><line id="Line" x1="637" x2="661.856" y1="596" y2="682.5" stroke="#000" stroke-width="16" transform="translate(649.428094, 639.249768) rotate(1.032339) translate(-649.428094, -639.249768)"/></g></g><g id="notion-avatar-mouth"><g id="Mouth/ 18"><g id="Group"><path id="Path" fill-rule="evenodd" stroke="#000" stroke-linecap="round" stroke-linejoin="round" stroke-width="8" d="M557 770.275C557 770.275 585.239 770.788 599.667 769.145C614.094 767.502 629.872 761.905 636.345 761.24C642.818 760.574 648.322 764.063 649.819 764.063C651.316 764.063 655.058 760.675 662.544 761.24C670.029 761.804 685 770.275 685 770.275C685 770.275 667.784 774.792 640.836 774.792C590.684 776.486 557 770.275 557 770.275Z" clip-rule="evenodd"/><path id="Path_2" stroke="#000" stroke-linecap="round" stroke-linejoin="round" stroke-width="8" d="M682 771C682 771 675.538 776.607 672 779C666.765 782.54 661.978 785.894 651 786C642.504 786.082 624.027 780.984 613 779C600.148 776.688 563 771 563 771"/></g></g></g><g id="notion-avatar-eyes"><g id="Eyes/ 11"><g id="Group 3"><path id="Path" stroke="#000" stroke-linecap="round" stroke-linejoin="round" stroke-width="12" d="M660 536.5C660 536.5 668.471 533 679.765 533C691.059 533 702.811 538 723.059 538C743.306 538 756 533 756 533"/><path id="Path_2" stroke="#000" stroke-linecap="round" stroke-linejoin="round" stroke-width="12" d="M618 536.5C618 536.5 609.529 533 598.235 533C586.941 533 575.189 538 554.941 538C534.694 538 522 533 522 533"/></g></g></g><g id="notion-avatar-eyebrows"><title>Eyebrows/ 2</title><g id="Eyebrows/-2" fill="none" fill-rule="evenodd" stroke="none" stroke-linecap="round" stroke-linejoin="round" stroke-width="1"><path id="Combined-Shape" fill="#000" stroke="#000" stroke-width="16" d="M570,485.718496 C590.574398,488.795594 605.574398,494.964927 615,504.226493 C600,498.618009 585,495.813767 570,495.813767 C555,495.813767 536.666667,498.618009 515,504.226493 L525,490.766132 C534.425602,484.323943 549.425602,482.641398 570,485.718496 Z M708,485.718496 C728.574398,482.641398 743.574398,484.323943 753,490.766132 L753,490.766132 L763,504.226493 C741.333333,498.618009 723,495.813767 708,495.813767 C693,495.813767 678,498.618009 663,504.226493 C672.425602,494.964927 687.425602,488.795594 708,485.718496 Z"/></g></g><g id="notion-avatar-glasses"><title>Glasses/ 9</title><g id="Glasses/-9" fill="none" fill-rule="evenodd" stroke="none" stroke-linecap="round" stroke-linejoin="round" stroke-width="1"><g id="Group" fill="#000" stroke="#000" stroke-width="4" transform="translate(289.000000, 466.000000)"><path id="Combined-Shape" d="M229.149255,5.21037268 C247.672154,10.005924 283.261021,26.6137093 324.690343,43.1526512 L325.464481,43.4558112 C331.11768,45.6282957 339.032765,47.7972932 349.209737,49.9628037 L349.209737,71.3661403 C344.161954,74.4730774 341.061801,77.3917142 339.909277,80.1220507 C325.535839,114.172813 298.479956,136.549029 257.050634,124.874482 C200.767297,109.014157 181.801459,25.6408303 180.110466,12.0205252 C178.419474,-1.59977987 196.205221,-3.31878925 229.149255,5.21037268 Z M470.850745,5.21037268 L472.809163,4.710934 C504.498419,-3.24526836 521.546707,-1.32737377 519.889534,12.0205252 C518.198541,25.6408303 499.232703,109.014157 442.949366,124.874482 C401.520044,136.549029 374.464161,114.172813 360.090723,80.1220507 C358.969348,77.4655071 356.004199,74.630704 351.195275,71.6176415 L350.790263,71.3661403 L350.790263,49.9628037 L352.195626,49.6606168 C362.16219,47.4947819 369.866867,45.3254601 375.309657,43.1526512 L377.788318,42.1603271 C418.155707,25.9541227 452.698304,9.91001298 470.850745,5.21037268 Z"/><polygon id="Path" points="199 43 4 75 0 84 199 64"/></g></g></g><g id="notion-avatar-hair"><g id="Hairstyle/ 44"><path id="Path" fill="#000" fill-rule="evenodd" stroke="#000" stroke-linecap="round" stroke-linejoin="round" stroke-width="12" d="M597 238C641.824 249.881 671.655 291.241 696.256 360.881L697 363C700.664 373.502 708.997 386.502 722 402L697 422C682.827 418.397 663.105 401.882 643.257 386.408L647.113 390.676L648.98 392.721C659.235 403.922 667.588 412.387 674.038 418.118C681.648 424.88 713.55 438.841 727 446L724.772 445.836C688.581 443.081 662.086 436.863 645.285 427.18L643.627 426.218C618.482 411.529 593.764 392.762 574 388L573.067 387.782C569.394 386.944 564.622 386.117 559.065 385.408L560.454 387.862L565.488 396.883C574.977 413.799 586.776 433.285 605 445C623.667 457 642.667 464.334 662 467C620.864 461.487 589.743 444.117 568.637 414.89L568 414C560.977 404.101 553.193 394.102 544.647 384.003C536.125 383.41 526.708 383.153 517.075 383.464C522.563 395.453 528.871 406.631 536 417C545.922 431.432 558.588 442.432 574 450C558.314 446.104 544.98 437.771 534 425C524.82 414.324 515.394 400.692 505.721 384.104C488.662 385.492 471.757 388.916 458.704 395.633L455.959 397.071C422.61 414.405 448.51 432.908 439 454C423.737 487.852 379 498.408 379 516L378.995 516.738L378.98 517.531L378.957 518.382C378.513 532.298 374.679 573.294 367.453 641.372L366 655L328.117 564.825H287.146C271.78 507.748 268.106 468.653 276.123 447.543C280.074 437.137 290.485 420.34 307.26 402.225C304.179 389.659 303.282 378.973 304.569 370.166C306.797 354.916 337.168 294.833 401 269C428.459 257.888 444.639 265.754 470 256C483 251 514 216 597 238Z" clip-rule="evenodd"/></g></g><g id="notion-avatar-accessories"><title>Accessories/ 0</title></g><g id="notion-avatar-details"><title>Details/ 0</title></g><g id="notion-avatar-beard"><title>Beard/ 0</title></g><g id="notion-avatar-halloween"><title>halloween/ 0</title></g></g></svg>